<?xml version="1.0" encoding="UTF-8" standalone="no"?>
<!-- Generator: Adobe Illustrator 14.0.0, SVG Export Plug-In . SVG Version: 6.00 Build 43363)  -->

<svg
   xmlns:dc="http://purl.org/dc/elements/1.1/"
   xmlns:cc="http://creativecommons.org/ns#"
   xmlns:rdf="http://www.w3.org/1999/02/22-rdf-syntax-ns#"
   xmlns:svg="http://www.w3.org/2000/svg"
   xmlns="http://www.w3.org/2000/svg"
   xmlns:xlink="http://www.w3.org/1999/xlink"
   xmlns:sodipodi="http://sodipodi.sourceforge.net/DTD/sodipodi-0.dtd"
   xmlns:inkscape="http://www.inkscape.org/namespaces/inkscape"
   version="1.1"
   id="Camada_1"
   x="0px"
   y="0px"
   width="385px"
   height="347px"
   viewBox="0 0 385 347"
   enable-background="new 0 0 385 347"
   xml:space="preserve"
   sodipodi:docname="logo_fei_cinza.svg"
   inkscape:version="0.92.3 (2405546, 2018-03-11)"><metadata
   id="metadata61"><rdf:RDF><cc:Work
       rdf:about=""><dc:format>image/svg+xml</dc:format><dc:type
         rdf:resource="http://purl.org/dc/dcmitype/StillImage" /><dc:title></dc:title></cc:Work></rdf:RDF></metadata><defs
   id="defs59">
	<defs
   id="defs3">
		<rect
   height="595.28"
   width="841.89"
   y="-122.141"
   x="-240.445"
   id="SVGID_1_" />
	</defs>
	<clipPath
   id="SVGID_2_">
		<use
   id="use5"
   overflow="visible"
   xlink:href="#SVGID_1_" />
	</clipPath>
	
	
	
	
	
	
	
	
	
	
	
	
	
	
	
	
	
	
	
	
	
	
	
</defs><sodipodi:namedview
   pagecolor="#ffffff"
   bordercolor="#666666"
   borderopacity="1"
   objecttolerance="10"
   gridtolerance="10"
   guidetolerance="10"
   inkscape:pageopacity="0"
   inkscape:pageshadow="2"
   inkscape:window-width="1853"
   inkscape:window-height="1025"
   id="namedview57"
   showgrid="false"
   inkscape:zoom="0.68011527"
   inkscape:cx="192.5"
   inkscape:cy="173.5"
   inkscape:window-x="67"
   inkscape:window-y="27"
   inkscape:window-maximized="1"
   inkscape:current-layer="Camada_1" />
<path
   style="fill:#c0c0c0;fill-opacity:1"
   inkscape:connector-curvature="0"
   id="path8"
   d="m 47.419,27.989 h 7.257 v 1.05 l -0.445,4.615 c -0.892,4.202 -5.243,6.301 -13.052,6.301 -5.73,0 -9.536,-1.033 -11.426,-3.104 -1.89,-2.067 -2.833,-6.233 -2.833,-12.492 0,-6.11 0.943,-10.228 2.833,-12.35 1.89,-2.122 5.558,-3.184 11.013,-3.184 5.26,0 8.826,0.772 10.696,2.309 1.867,1.537 2.8,4.46 2.8,8.769 h -7.225 c 0,-3.543 -2.051,-5.316 -6.145,-5.316 -2.907,0 -4.732,0.565 -5.474,1.689 -0.743,1.124 -1.115,3.881 -1.115,8.274 0,4.244 0.41,6.914 1.227,8.006 0.818,1.092 2.817,1.641 6.001,1.641 2.503,0 4.112,-0.378 4.823,-1.13 0.71,-0.755 1.065,-2.449 1.065,-5.078"
   clip-path="url(#SVGID_2_)" /><path
   style="fill:#c0c0c0;fill-opacity:1"
   inkscape:connector-curvature="0"
   id="path10"
   d="m 78.327,29.866 h 7.321 v 1.179 c 0,5.943 -4.457,8.91 -13.37,8.91 -6.047,0 -10.006,-1.027 -11.873,-3.087 -1.867,-2.057 -2.8,-6.417 -2.8,-13.08 0,-5.923 0.975,-9.898 2.927,-11.936 1.953,-2.038 5.761,-3.055 11.428,-3.055 5.433,0 9.073,0.991 10.916,2.974 1.848,1.986 2.772,5.885 2.772,11.698 v 2.228 H 65.053 c -0.043,0.678 -0.065,1.124 -0.065,1.336 0,2.992 0.462,4.988 1.385,5.986 0.924,0.997 2.765,1.495 5.523,1.495 2.675,0 4.415,-0.291 5.22,-0.876 0.806,-0.585 1.211,-1.84 1.211,-3.772 m 0.064,-8.626 -0.032,-1.208 c 0,-2.418 -0.42,-3.991 -1.26,-4.712 -0.837,-0.72 -2.658,-1.081 -5.458,-1.081 -2.716,0 -4.482,0.436 -5.3,1.304 -0.817,0.872 -1.223,2.768 -1.223,5.697 z"
   clip-path="url(#SVGID_2_)" /><path
   style="fill:#c0c0c0;fill-opacity:1"
   inkscape:connector-curvature="0"
   id="path12"
   d="m 90.424,9.178 h 7.225 l -0.288,5.125 0.162,0.029 c 1.421,-3.669 4.602,-5.506 9.547,-5.506 7.195,0 10.79,3.355 10.79,10.06 v 20.721 h -7.29 V 21.272 20.126 l -0.158,-2.132 c -0.34,-2.27 -2.122,-3.407 -5.348,-3.407 -4.9,0 -7.351,2.325 -7.351,6.973 v 18.047 h -7.289 z"
   clip-path="url(#SVGID_2_)" /><path
   style="fill:#c0c0c0;fill-opacity:1"
   inkscape:connector-curvature="0"
   id="path14"
   d="m 143.329,9.178 v 5.538 h -11.714 v 15.279 c 0,2.82 1.072,4.231 3.214,4.231 2.357,0 3.532,-1.705 3.532,-5.122 v -1.211 h 6.208 v 1.528 c 0,1.401 -0.043,2.6 -0.126,3.598 -0.404,4.647 -3.863,6.969 -10.377,6.969 -6.495,0 -9.741,-2.981 -9.741,-8.943 V 14.716 H 120.38 V 9.178 h 3.945 V 2.366 h 7.29 v 6.812 z"
   clip-path="url(#SVGID_2_)" /><path
   style="fill:#c0c0c0;fill-opacity:1"
   inkscape:connector-curvature="0"
   id="path16"
   d="m 147.465,9.178 h 7.289 l -0.445,4.266 0.158,0.029 c 1.74,-3.181 4.477,-4.774 8.213,-4.774 5.347,0 8.022,3.375 8.022,10.122 v 2.131 h -6.876 c 0.084,-0.826 0.126,-1.365 0.126,-1.621 0,-3.245 -1.262,-4.87 -3.788,-4.87 -3.608,0 -5.41,2.409 -5.41,7.225 v 17.921 h -7.289 z"
   clip-path="url(#SVGID_2_)" /><path
   style="fill:#c0c0c0;fill-opacity:1"
   inkscape:connector-curvature="0"
   id="path18"
   d="m 186.808,8.826 c 5.878,0 9.732,0.939 11.556,2.819 1.824,1.876 2.735,5.839 2.735,11.888 0,6.746 -0.891,11.171 -2.67,13.273 -1.784,2.099 -5.539,3.149 -11.268,3.149 -6.222,0 -10.245,-0.975 -12.083,-2.926 -1.835,-1.953 -2.752,-6.249 -2.752,-12.892 0,-6.388 0.901,-10.535 2.703,-12.447 1.806,-1.908 5.734,-2.864 11.779,-2.864 m -0.064,5.761 c -3.032,0 -4.965,0.549 -5.792,1.641 -0.829,1.091 -1.243,3.642 -1.243,7.653 0,4.583 0.394,7.448 1.179,8.595 0.785,1.147 2.749,1.721 5.887,1.721 3.036,0 4.951,-0.607 5.745,-1.815 0.798,-1.211 1.196,-4.118 1.196,-8.723 0,-3.882 -0.413,-6.365 -1.244,-7.447 -0.826,-1.083 -2.735,-1.625 -5.728,-1.625"
   clip-path="url(#SVGID_2_)" /><path
   style="fill:#c0c0c0;fill-opacity:1"
   inkscape:connector-curvature="0"
   id="path20"
   d="m 55.057,63.838 v 30.429 h -7.289 l 0.413,-5.219 -0.126,-0.032 c -1.421,3.733 -4.689,5.599 -9.805,5.599 -6.895,0 -10.344,-3.445 -10.344,-10.344 V 63.838 h 7.29 v 18.683 c 0,2.59 0.361,4.292 1.081,5.109 0.723,0.817 2.218,1.227 4.489,1.227 4.667,0 7.002,-2.803 7.002,-8.403 V 63.838 Z"
   clip-path="url(#SVGID_2_)" /><path
   style="fill:#c0c0c0;fill-opacity:1"
   inkscape:connector-curvature="0"
   id="path22"
   d="m 61.138,63.838 h 7.225 l -0.288,5.125 0.162,0.029 c 1.422,-3.669 4.602,-5.506 9.547,-5.506 7.195,0 10.79,3.355 10.79,10.06 v 20.721 h -7.29 V 75.933 74.787 l -0.158,-2.131 c -0.339,-2.271 -2.122,-3.408 -5.348,-3.408 -4.899,0 -7.351,2.326 -7.351,6.973 v 18.047 h -7.289 z"
   clip-path="url(#SVGID_2_)" /><path
   style="fill:#c0c0c0;fill-opacity:1"
   inkscape:connector-curvature="0"
   id="path24"
   d="M 101.692,56.897 H 94.403 V 50.82 h 7.289 z m 0,37.37 H 94.403 V 63.838 h 7.289 z"
   clip-path="url(#SVGID_2_)" /><path
   style="fill:#c0c0c0;fill-opacity:1"
   inkscape:connector-curvature="0"
   id="path26"
   d="m 132.919,63.838 -8.724,30.429 h -11.393 l -9.169,-30.429 h 7.734 l 4.012,14.036 c 0.552,1.953 1.062,3.843 1.527,5.668 l 0.734,2.832 0.733,2.832 h 0.158 l 0.668,-2.832 0.669,-2.804 c 0.511,-2.121 0.986,-4.007 1.431,-5.664 l 3.756,-14.068 z"
   clip-path="url(#SVGID_2_)" /><path
   style="fill:#c0c0c0;fill-opacity:1"
   inkscape:connector-curvature="0"
   id="path28"
   d="m 154.503,84.527 h 7.321 v 1.179 c 0,5.942 -4.456,8.91 -13.37,8.91 -6.046,0 -10.006,-1.027 -11.872,-3.087 -1.867,-2.058 -2.8,-6.417 -2.8,-13.08 0,-5.923 0.974,-9.899 2.926,-11.937 1.954,-2.038 5.761,-3.055 11.429,-3.055 5.432,0 9.073,0.992 10.916,2.975 1.848,1.986 2.771,5.884 2.771,11.698 v 2.228 h -20.595 c -0.042,0.678 -0.064,1.124 -0.064,1.336 0,2.991 0.462,4.987 1.384,5.985 0.924,0.998 2.766,1.495 5.524,1.495 2.674,0 4.415,-0.291 5.219,-0.875 0.807,-0.585 1.211,-1.84 1.211,-3.772 m 0.064,-8.626 -0.032,-1.208 c 0,-2.419 -0.42,-3.992 -1.259,-4.712 -0.837,-0.72 -2.658,-1.082 -5.459,-1.082 -2.716,0 -4.482,0.436 -5.299,1.305 -0.817,0.872 -1.224,2.768 -1.224,5.697 z"
   clip-path="url(#SVGID_2_)" /><path
   style="fill:#c0c0c0;fill-opacity:1"
   inkscape:connector-curvature="0"
   id="path30"
   d="m 166.788,63.838 h 7.29 l -0.446,4.266 0.158,0.029 c 1.741,-3.181 4.477,-4.774 8.213,-4.774 5.348,0 8.021,3.376 8.021,10.122 v 2.131 h -6.876 c 0.084,-0.826 0.126,-1.365 0.126,-1.621 0,-3.245 -1.262,-4.87 -3.788,-4.87 -3.607,0 -5.409,2.41 -5.409,7.225 v 17.921 h -7.29 V 63.838 Z"
   clip-path="url(#SVGID_2_)" /><path
   style="fill:#c0c0c0;fill-opacity:1"
   inkscape:connector-curvature="0"
   id="path32"
   d="m 218.165,72.209 h -7.132 c -0.042,-0.255 -0.073,-0.445 -0.098,-0.571 -0.148,-1.467 -0.564,-2.377 -1.255,-2.739 -0.692,-0.362 -2.362,-0.543 -5.013,-0.543 -3.799,0 -5.696,1.234 -5.696,3.695 0,1.676 0.332,2.674 1.001,2.991 0.668,0.32 2.932,0.571 6.795,0.765 5.199,0.252 8.584,0.943 10.153,2.067 1.569,1.127 2.357,3.427 2.357,6.908 0,3.714 -1.047,6.285 -3.135,7.719 -2.09,1.434 -5.843,2.147 -11.252,2.147 -5.201,0 -8.756,-0.646 -10.664,-1.94 -1.91,-1.295 -2.866,-3.714 -2.866,-7.257 v -0.766 h 7.576 c -0.104,0.427 -0.17,0.766 -0.188,1.021 -0.299,2.693 1.781,4.04 6.234,4.04 4.606,0 6.909,-1.334 6.909,-4.008 0,-2.568 -1.444,-3.853 -4.328,-3.853 -6.517,0 -10.806,-0.613 -12.877,-1.847 -2.07,-1.231 -3.103,-3.786 -3.103,-7.67 0,-3.479 0.942,-5.836 2.833,-7.067 1.889,-1.23 5.516,-1.844 10.887,-1.844 5.07,0 8.479,0.594 10.234,1.782 1.753,1.189 2.628,3.512 2.628,6.97"
   clip-path="url(#SVGID_2_)" /><path
   style="fill:#c0c0c0;fill-opacity:1"
   inkscape:connector-curvature="0"
   id="path34"
   d="m 230.992,56.897 h -7.29 V 50.82 h 7.29 z m 0,37.37 h -7.29 V 63.838 h 7.29 z"
   clip-path="url(#SVGID_2_)" /><path
   style="fill:#c0c0c0;fill-opacity:1"
   inkscape:connector-curvature="0"
   id="path36"
   d="m 256.49,63.838 v 5.539 h -11.715 v 15.278 c 0,2.82 1.072,4.231 3.215,4.231 2.356,0 3.532,-1.705 3.532,-5.122 v -1.211 h 6.207 v 1.528 c 0,1.402 -0.042,2.6 -0.126,3.598 -0.402,4.647 -3.861,6.969 -10.377,6.969 -6.494,0 -9.74,-2.981 -9.74,-8.943 V 69.377 h -3.945 v -5.539 h 3.945 v -6.811 h 7.289 v 6.811 z"
   clip-path="url(#SVGID_2_)" /><path
   style="fill:#c0c0c0;fill-opacity:1"
   inkscape:connector-curvature="0"
   id="path38"
   d="m 268.014,72.656 h -7.448 c 0,-3.65 0.849,-6.092 2.548,-7.322 1.696,-1.231 5.062,-1.847 10.089,-1.847 5.476,0 9.18,0.755 11.111,2.26 1.927,1.508 2.893,4.383 2.893,8.626 v 19.894 h -7.288 l 0.352,-4.169 -0.191,-0.032 c -1.4,3.036 -4.638,4.55 -9.708,4.55 -7.362,0 -11.045,-3.129 -11.045,-9.388 0,-6.324 3.767,-9.485 11.3,-9.485 5.028,0 8.084,1.156 9.166,3.469 h 0.127 V 74.28 c 0,-2.377 -0.413,-3.953 -1.24,-4.728 -0.827,-0.776 -2.526,-1.163 -5.094,-1.163 -3.717,0 -5.572,1.424 -5.572,4.267 m 4.87,7.989 c -4.114,0 -6.176,1.421 -6.176,4.263 0,1.974 0.427,3.269 1.275,3.886 0.847,0.613 2.629,0.923 5.345,0.923 4.438,0 6.653,-1.498 6.653,-4.489 0,-3.055 -2.367,-4.583 -7.097,-4.583 m 7.034,-29.922 2.642,4.903 -11.395,4.902 -1.593,-3.023 z"
   clip-path="url(#SVGID_2_)" /><path
   style="fill:#c0c0c0;fill-opacity:1"
   inkscape:connector-curvature="0"
   id="path40"
   d="m 293.352,63.838 h 7.289 l -0.444,4.266 0.157,0.029 c 1.741,-3.181 4.478,-4.774 8.214,-4.774 5.348,0 8.021,3.376 8.021,10.122 v 2.131 h -6.876 c 0.084,-0.826 0.126,-1.365 0.126,-1.621 0,-3.245 -1.262,-4.87 -3.788,-4.87 -3.606,0 -5.41,2.41 -5.41,7.225 v 17.921 h -7.289 z"
   clip-path="url(#SVGID_2_)" /><path
   style="fill:#c0c0c0;fill-opacity:1"
   inkscape:connector-curvature="0"
   id="path42"
   d="m 326.617,56.897 h -7.289 V 50.82 h 7.289 z m 0,37.37 h -7.289 V 63.838 h 7.289 z"
   clip-path="url(#SVGID_2_)" /><path
   style="fill:#c0c0c0;fill-opacity:1"
   inkscape:connector-curvature="0"
   id="path44"
   d="m 345.842,63.486 c 5.879,0 9.732,0.939 11.556,2.819 1.825,1.877 2.735,5.839 2.735,11.888 0,6.747 -0.89,11.171 -2.669,13.274 -1.784,2.099 -5.54,3.148 -11.269,3.148 -6.221,0 -10.244,-0.975 -12.082,-2.925 -1.834,-1.954 -2.751,-6.25 -2.751,-12.893 0,-6.388 0.899,-10.535 2.702,-12.447 1.806,-1.909 5.734,-2.864 11.778,-2.864 m -0.064,5.762 c -3.032,0 -4.964,0.549 -5.79,1.641 -0.83,1.091 -1.243,3.642 -1.243,7.654 0,4.583 0.393,7.447 1.179,8.594 0.784,1.147 2.748,1.721 5.887,1.721 3.035,0 4.95,-0.607 5.745,-1.815 0.798,-1.211 1.195,-4.117 1.195,-8.723 0,-3.882 -0.413,-6.365 -1.244,-7.447 -0.826,-1.082 -2.736,-1.625 -5.729,-1.625"
   clip-path="url(#SVGID_2_)" /><path
   style="fill:#c0c0c0;fill-opacity:1"
   inkscape:connector-curvature="0"
   id="path46"
   d="m 383.484,140.098 c 0,-4.822 -1.866,-9.384 -5.684,-12.822 -4.504,-3.85 -11.013,-4.121 -17.328,-4.121 -22.402,0 -41.142,9.284 -53.574,24.142 -11.72,-14.037 -30.026,-24.142 -52.142,-24.142 h -40.102 c -20.479,0 -37.613,8.078 -50.187,21.475 -11.814,-13.083 -29.5,-21.475 -49.531,-21.475 H 72.463 c -42.084,0 -68.949,34.769 -68.949,65.453 V 328.68 c 0,4.823 1.866,9.384 5.683,12.821 5.149,4.08 11.186,4.141 17.329,4.141 41.123,0 69.952,-31.302 69.952,-70.881 h 47.133 c 0,39.236 28.423,70.881 71.044,70.881 h 97.921 c 45.739,0 70.908,-34.827 70.908,-65.157 z"
   clip-path="url(#SVGID_2_)" /><path
   style="fill:#ffffff"
   inkscape:connector-curvature="0"
   id="path48"
   d="M 314.808,191.818 V 321.38 c 24.522,-0.433 44.409,-19.882 44.409,-44.409 V 147.406 c -24.523,0.434 -44.409,19.885 -44.409,44.412"
   clip-path="url(#SVGID_2_)" /><path
   style="fill:#ffffff"
   inkscape:connector-curvature="0"
   id="path50"
   d="m 158.35,190.906 c -0.426,-24.02 -19.477,-43.5 -43.5,-43.5 H 72.26 c -0.023,0.01 -0.045,0.023 -0.068,0.033 v -0.033 C 47.668,147.84 27.781,167.29 27.781,191.818 v 129.563 c 24.523,-0.434 44.411,-19.883 44.411,-44.41 v -26.832 h 72.963 c -0.425,-24.02 -19.476,-43.5 -43.5,-43.5 H 72.192 v -15.732 h 86.158 z"
   clip-path="url(#SVGID_2_)" /><path
   style="fill:#ffffff"
   inkscape:connector-curvature="0"
   id="path52"
   d="m 256.562,276.977 h -43.718 v -27.938 h 68.822 c -0.425,-24.021 -19.476,-43.501 -43.501,-43.501 h -25.321 v -14.632 h 86.089 c -0.425,-24.02 -19.476,-43.5 -43.5,-43.5 h -42.589 v -0.015 c -24.523,0.434 -44.411,19.883 -44.411,44.411 v 85.168 c 0.434,24.523 20.564,44.416 44.411,44.416 h 88.128 c -0.434,-24.523 -19.884,-44.409 -44.41,-44.409"
   clip-path="url(#SVGID_2_)" />
</svg>